%TF.GenerationSoftware,KiCad,Pcbnew,8.0.7*%
%TF.CreationDate,2025-07-13T11:03:56-07:00*%
%TF.ProjectId,shifter,73686966-7465-4722-9e6b-696361645f70,rev?*%
%TF.SameCoordinates,Original*%
%TF.FileFunction,Legend,Top*%
%TF.FilePolarity,Positive*%
%FSLAX46Y46*%
G04 Gerber Fmt 4.6, Leading zero omitted, Abs format (unit mm)*
G04 Created by KiCad (PCBNEW 8.0.7) date 2025-07-13 11:03:56*
%MOMM*%
%LPD*%
G01*
G04 APERTURE LIST*
%ADD10C,0.300000*%
%ADD11C,0.120000*%
G04 APERTURE END LIST*
D10*
X173430225Y-77300828D02*
X173930225Y-78800828D01*
X173930225Y-78800828D02*
X174430225Y-77300828D01*
X175715939Y-78800828D02*
X174858796Y-78800828D01*
X175287367Y-78800828D02*
X175287367Y-77300828D01*
X175287367Y-77300828D02*
X175144510Y-77515114D01*
X175144510Y-77515114D02*
X175001653Y-77657971D01*
X175001653Y-77657971D02*
X174858796Y-77729400D01*
X139644510Y-90300828D02*
X139644510Y-88800828D01*
X139644510Y-88800828D02*
X140215939Y-88800828D01*
X140215939Y-88800828D02*
X140358796Y-88872257D01*
X140358796Y-88872257D02*
X140430225Y-88943685D01*
X140430225Y-88943685D02*
X140501653Y-89086542D01*
X140501653Y-89086542D02*
X140501653Y-89300828D01*
X140501653Y-89300828D02*
X140430225Y-89443685D01*
X140430225Y-89443685D02*
X140358796Y-89515114D01*
X140358796Y-89515114D02*
X140215939Y-89586542D01*
X140215939Y-89586542D02*
X139644510Y-89586542D01*
X141430225Y-88800828D02*
X141715939Y-88800828D01*
X141715939Y-88800828D02*
X141858796Y-88872257D01*
X141858796Y-88872257D02*
X142001653Y-89015114D01*
X142001653Y-89015114D02*
X142073082Y-89300828D01*
X142073082Y-89300828D02*
X142073082Y-89800828D01*
X142073082Y-89800828D02*
X142001653Y-90086542D01*
X142001653Y-90086542D02*
X141858796Y-90229400D01*
X141858796Y-90229400D02*
X141715939Y-90300828D01*
X141715939Y-90300828D02*
X141430225Y-90300828D01*
X141430225Y-90300828D02*
X141287368Y-90229400D01*
X141287368Y-90229400D02*
X141144510Y-90086542D01*
X141144510Y-90086542D02*
X141073082Y-89800828D01*
X141073082Y-89800828D02*
X141073082Y-89300828D01*
X141073082Y-89300828D02*
X141144510Y-89015114D01*
X141144510Y-89015114D02*
X141287368Y-88872257D01*
X141287368Y-88872257D02*
X141430225Y-88800828D01*
X143430225Y-90300828D02*
X142715939Y-90300828D01*
X142715939Y-90300828D02*
X142715939Y-88800828D01*
X143858797Y-89872257D02*
X144573083Y-89872257D01*
X143715940Y-90300828D02*
X144215940Y-88800828D01*
X144215940Y-88800828D02*
X144715940Y-90300828D01*
X109144510Y-78015114D02*
X108644510Y-78015114D01*
X108644510Y-78800828D02*
X108644510Y-77300828D01*
X108644510Y-77300828D02*
X109358796Y-77300828D01*
X110715939Y-78800828D02*
X109858796Y-78800828D01*
X110287367Y-78800828D02*
X110287367Y-77300828D01*
X110287367Y-77300828D02*
X110144510Y-77515114D01*
X110144510Y-77515114D02*
X110001653Y-77657971D01*
X110001653Y-77657971D02*
X109858796Y-77729400D01*
X112358795Y-77300828D02*
X112715938Y-78800828D01*
X112715938Y-78800828D02*
X113001652Y-77729400D01*
X113001652Y-77729400D02*
X113287367Y-78800828D01*
X113287367Y-78800828D02*
X113644510Y-77300828D01*
X114215938Y-78800828D02*
X114215938Y-77300828D01*
X114858796Y-78800828D02*
X114858796Y-78015114D01*
X114858796Y-78015114D02*
X114787367Y-77872257D01*
X114787367Y-77872257D02*
X114644510Y-77800828D01*
X114644510Y-77800828D02*
X114430224Y-77800828D01*
X114430224Y-77800828D02*
X114287367Y-77872257D01*
X114287367Y-77872257D02*
X114215938Y-77943685D01*
X116144510Y-78729400D02*
X116001653Y-78800828D01*
X116001653Y-78800828D02*
X115715939Y-78800828D01*
X115715939Y-78800828D02*
X115573081Y-78729400D01*
X115573081Y-78729400D02*
X115501653Y-78586542D01*
X115501653Y-78586542D02*
X115501653Y-78015114D01*
X115501653Y-78015114D02*
X115573081Y-77872257D01*
X115573081Y-77872257D02*
X115715939Y-77800828D01*
X115715939Y-77800828D02*
X116001653Y-77800828D01*
X116001653Y-77800828D02*
X116144510Y-77872257D01*
X116144510Y-77872257D02*
X116215939Y-78015114D01*
X116215939Y-78015114D02*
X116215939Y-78157971D01*
X116215939Y-78157971D02*
X115501653Y-78300828D01*
X117430224Y-78729400D02*
X117287367Y-78800828D01*
X117287367Y-78800828D02*
X117001653Y-78800828D01*
X117001653Y-78800828D02*
X116858795Y-78729400D01*
X116858795Y-78729400D02*
X116787367Y-78586542D01*
X116787367Y-78586542D02*
X116787367Y-78015114D01*
X116787367Y-78015114D02*
X116858795Y-77872257D01*
X116858795Y-77872257D02*
X117001653Y-77800828D01*
X117001653Y-77800828D02*
X117287367Y-77800828D01*
X117287367Y-77800828D02*
X117430224Y-77872257D01*
X117430224Y-77872257D02*
X117501653Y-78015114D01*
X117501653Y-78015114D02*
X117501653Y-78157971D01*
X117501653Y-78157971D02*
X116787367Y-78300828D01*
X118358795Y-78800828D02*
X118215938Y-78729400D01*
X118215938Y-78729400D02*
X118144509Y-78586542D01*
X118144509Y-78586542D02*
X118144509Y-77300828D01*
X137073082Y-87729400D02*
X137287368Y-87800828D01*
X137287368Y-87800828D02*
X137644510Y-87800828D01*
X137644510Y-87800828D02*
X137787368Y-87729400D01*
X137787368Y-87729400D02*
X137858796Y-87657971D01*
X137858796Y-87657971D02*
X137930225Y-87515114D01*
X137930225Y-87515114D02*
X137930225Y-87372257D01*
X137930225Y-87372257D02*
X137858796Y-87229400D01*
X137858796Y-87229400D02*
X137787368Y-87157971D01*
X137787368Y-87157971D02*
X137644510Y-87086542D01*
X137644510Y-87086542D02*
X137358796Y-87015114D01*
X137358796Y-87015114D02*
X137215939Y-86943685D01*
X137215939Y-86943685D02*
X137144510Y-86872257D01*
X137144510Y-86872257D02*
X137073082Y-86729400D01*
X137073082Y-86729400D02*
X137073082Y-86586542D01*
X137073082Y-86586542D02*
X137144510Y-86443685D01*
X137144510Y-86443685D02*
X137215939Y-86372257D01*
X137215939Y-86372257D02*
X137358796Y-86300828D01*
X137358796Y-86300828D02*
X137715939Y-86300828D01*
X137715939Y-86300828D02*
X137930225Y-86372257D01*
X138573081Y-86300828D02*
X138573081Y-87515114D01*
X138573081Y-87515114D02*
X138644510Y-87657971D01*
X138644510Y-87657971D02*
X138715939Y-87729400D01*
X138715939Y-87729400D02*
X138858796Y-87800828D01*
X138858796Y-87800828D02*
X139144510Y-87800828D01*
X139144510Y-87800828D02*
X139287367Y-87729400D01*
X139287367Y-87729400D02*
X139358796Y-87657971D01*
X139358796Y-87657971D02*
X139430224Y-87515114D01*
X139430224Y-87515114D02*
X139430224Y-86300828D01*
X140073082Y-87729400D02*
X140287368Y-87800828D01*
X140287368Y-87800828D02*
X140644510Y-87800828D01*
X140644510Y-87800828D02*
X140787368Y-87729400D01*
X140787368Y-87729400D02*
X140858796Y-87657971D01*
X140858796Y-87657971D02*
X140930225Y-87515114D01*
X140930225Y-87515114D02*
X140930225Y-87372257D01*
X140930225Y-87372257D02*
X140858796Y-87229400D01*
X140858796Y-87229400D02*
X140787368Y-87157971D01*
X140787368Y-87157971D02*
X140644510Y-87086542D01*
X140644510Y-87086542D02*
X140358796Y-87015114D01*
X140358796Y-87015114D02*
X140215939Y-86943685D01*
X140215939Y-86943685D02*
X140144510Y-86872257D01*
X140144510Y-86872257D02*
X140073082Y-86729400D01*
X140073082Y-86729400D02*
X140073082Y-86586542D01*
X140073082Y-86586542D02*
X140144510Y-86443685D01*
X140144510Y-86443685D02*
X140215939Y-86372257D01*
X140215939Y-86372257D02*
X140358796Y-86300828D01*
X140358796Y-86300828D02*
X140715939Y-86300828D01*
X140715939Y-86300828D02*
X140930225Y-86372257D01*
X141573081Y-87800828D02*
X141573081Y-86300828D01*
X141573081Y-87015114D02*
X142430224Y-87015114D01*
X142430224Y-87800828D02*
X142430224Y-86300828D01*
X144001653Y-87800828D02*
X143501653Y-87086542D01*
X143144510Y-87800828D02*
X143144510Y-86300828D01*
X143144510Y-86300828D02*
X143715939Y-86300828D01*
X143715939Y-86300828D02*
X143858796Y-86372257D01*
X143858796Y-86372257D02*
X143930225Y-86443685D01*
X143930225Y-86443685D02*
X144001653Y-86586542D01*
X144001653Y-86586542D02*
X144001653Y-86800828D01*
X144001653Y-86800828D02*
X143930225Y-86943685D01*
X143930225Y-86943685D02*
X143858796Y-87015114D01*
X143858796Y-87015114D02*
X143715939Y-87086542D01*
X143715939Y-87086542D02*
X143144510Y-87086542D01*
X144644510Y-86300828D02*
X144644510Y-87515114D01*
X144644510Y-87515114D02*
X144715939Y-87657971D01*
X144715939Y-87657971D02*
X144787368Y-87729400D01*
X144787368Y-87729400D02*
X144930225Y-87800828D01*
X144930225Y-87800828D02*
X145215939Y-87800828D01*
X145215939Y-87800828D02*
X145358796Y-87729400D01*
X145358796Y-87729400D02*
X145430225Y-87657971D01*
X145430225Y-87657971D02*
X145501653Y-87515114D01*
X145501653Y-87515114D02*
X145501653Y-86300828D01*
X146001654Y-86300828D02*
X146858797Y-86300828D01*
X146430225Y-87800828D02*
X146430225Y-86300828D01*
D11*
%TO.C,SW2*%
X159475000Y-82015000D02*
X173445000Y-82015000D01*
X159475000Y-95985000D02*
X159475000Y-82015000D01*
X173445000Y-82015000D02*
X173445000Y-95985000D01*
X173445000Y-95985000D02*
X159475000Y-95985000D01*
%TO.C,SW1*%
X110475000Y-82015000D02*
X124445000Y-82015000D01*
X110475000Y-95985000D02*
X110475000Y-82015000D01*
X124445000Y-82015000D02*
X124445000Y-95985000D01*
X124445000Y-95985000D02*
X110475000Y-95985000D01*
%TD*%
M02*
